PathFileType	4	(X/Y/Z)	C:/Users/beibeiliu/ov580/test_trc/User1\sequence.23_training_dense_right.trc
DataRate	CameraRate	NumFrames	NumMarkers	Units	OrigDataRate	OrigDataStartFrame	OrigNumFrames
120	120	16	19	mm	120	31	240
Frame#	Time	ThumbCMC			ThumbMCP			ThumbIP			ThumbTip			IndexMCP			IndexPIP			IndexTip			MiddleMCP			MiddlePIP			MiddleTip			RingMCP			RingPIP			RingTip			PinkyMCP			PinkyPIP			PinkyTip			BackHand1			BackHand2			BackHand3	
		X0	Y0	Z0	X1	Y1	Z1	X2	Y2	Z2	X3	Y3	Z3	X4	Y4	Z4	X5	Y5	Z5	X6	Y6	Z6	X7	Y7	Z7	X8	Y8	Z8	X9	Y9	Z9	X10	Y10	Z10	X11	Y11	Z11	X12	Y12	Z12	X13	Y13	Z13	X14	Y14	Z14	X15	Y15	Z15	X16	Y16	Z16	X17	Y17	Z17	X18	Y18	Z18	
30	0.25	122.359	15.4457	57.0511	114.325	-10.2877	29.4598	114.437	-22.6159	5.28015	123.223	-35.3381	-16.0753	130.621	31.2047	-21.2294	131	0.837401	-32.7614	127.359	-14.1611	-3.18011	160.569	25.0743	-28.0473	150.803	-8.11767	-34.6513	145.654	-16.8166	2.66623	183.779	15.5724	-22.8638	169.356	-13.9675	-29.1198	164.017	-21.0783	6.32485	205.872	8.56437	-2.69122	209.916	0.0676176	-23.1427	216.27	-4.86264	-43.283	187.823	35.5689	39.0032	187.853	34.6405	72.0662	152.877	45.392	56.8548	
31	0.258333	124.221	15.2869	57.5866	116.907	-10.6932	25.0881	119.125	-22.0665	1.70779	132.861	-36.2801	-21.0438	136.533	28.7325	-20.3051	130.21	-4.24372	-29.1541	130.012	-12.9724	5.47196	162.239	20.6361	-29.0603	152.723	-12.4945	-30.7293	143.602	-16.2423	9.80781	182.259	10.2439	-22.5841	169.876	-19.9106	-22.7442	159.733	-21.6752	7.3676	208.762	5.81625	-1.47887	210.769	-1.5737	-21.2042	214.318	-6.6287	-45.6787	187.14	35.0417	37.8802	187.113	36.0383	74.6115	157.22	44.2004	55.2993	
32	0.266667	122.069	15.1447	59.7969	116.745	-11.4775	24.076	120.868	-23.2496	-2.27277	141.537	-35.7502	-20.2122	136.126	26.9504	-19.6829	127.287	-7.86377	-24.6859	128.133	-12.0184	7.35889	161.485	19.0992	-24.5497	147.827	-14.8337	-25.8978	147.675	-15.3699	14.0669	182.504	7.06099	-19.5497	167.25	-22.7021	-19.5623	161.921	-22.2448	15.5148	207.808	6.05145	-0.296491	214.494	-4.5353	-18.9737	215.224	-10.3108	-46.4636	191.24	34.6443	39.6292	191.738	32.3192	72.5065	158.355	44.7458	52.321	
33	0.275	124.018	14.2034	58.0075	116.223	-13.0782	28.3065	122.808	-25.6988	1.32505	146.751	-37.265	-19.6958	132.318	22.1506	-22.1398	129.549	-9.38674	-24.0057	132.097	-11.3228	11.682	164.113	15.2275	-22.9057	149.433	-17.8553	-22.5126	146.265	-14.3533	16.0662	182.076	0.476298	-19.7663	167.779	-27.437	-14.1196	163.468	-25.1908	17.8498	209.023	4.27868	-2.28105	214.064	-3.90223	-19.0035	220.57	-8.76671	-45.0458	190.077	35.8136	39.5029	188.535	34.028	71.0871	153.615	43.9361	55.691	
34	0.283333	125.103	12.914	56.0507	117.072	-14.4917	24.7764	126.973	-25.0614	3.45898	150.579	-38.1213	-17.9532	137.205	19.2507	-20.2706	128.041	-14.1574	-19.7738	130.583	-12.5429	13.5971	157.214	11.6947	-25.4765	149.463	-19.4742	-20.1994	148.739	-10.0053	20.2463	179.493	0.935673	-17.7418	168.314	-28.0719	-12.6858	159.113	-23.2067	22.9519	207.387	4.47589	-2.08718	213.119	-3.8149	-19.4532	217.295	-3.90327	-42.7546	189.835	32.0417	40.8055	187.141	32.2211	74.4649	153.851	42.8786	52.6739	
35	0.291667	124.613	11.0557	60.1831	118.457	-15.5167	23.8598	126.076	-27.8888	0.304593	152.605	-35.161	-13.0563	131.148	17.1834	-22.2019	133.141	-13.1516	-20.8237	129.166	-13.6192	13.9513	158.122	9.61176	-26.1559	150.167	-21.8478	-17.0608	152.183	-11.0192	20.9299	182.107	0.740191	-16.272	164.581	-29.3608	-10.0564	162.356	-24.436	25.1714	206.392	6.45227	-4.63824	209.472	0.453845	-17.293	217.105	-0.500549	-41.7613	185.406	36.0073	40.0911	186.471	33.3735	76.7214	155.074	42.8608	54.3554	
36	0.3	123.984	11.169	56.8954	119.12	-16.2464	28.3244	128.707	-26.9973	-2.89739	153.629	-36.1085	-14.3732	134.769	17.3728	-21.3108	129.633	-14.5188	-21.1448	132.681	-13.3605	13.8805	154.646	10.2445	-24.8212	150.302	-20.8237	-17.2793	147.153	-8.93581	22.5301	179.738	1.80348	-16.1863	165.824	-29.5727	-8.47599	160.725	-23.2751	23.8516	207.224	7.19578	0.244414	213.193	1.48059	-22.0393	215.732	6.07165	-38.0599	184.544	33.8086	40.0534	184.433	35.2728	71.6556	152.982	41.993	57.4182	
37	0.308333	124.713	9.31366	61.662	116.864	-17.4076	28.7984	127.433	-27.7239	-2.71548	153.892	-35.5047	-14.2998	132.973	18.2443	-18.4413	132.229	-13.6954	-21.003	126.873	-13.4311	15.2998	156.271	10.6213	-24.3813	151.54	-21.5491	-15.5595	150.471	-8.09887	22.3754	179.536	2.85276	-16.7438	164.925	-29.3253	-8.28564	158.675	-24.0581	22.0365	207.433	7.79114	-1.78345	212.085	4.192	-21.4325	216.254	9.79601	-41.8528	185.581	35.5492	41.5914	187.935	35.485	72.015	152.123	42.5958	52.7365	
38	0.316667	122.829	9.66417	62.7215	116.571	-16.3136	29.3584	126.36	-26.1445	-1.11861	149.959	-36.0525	-13.3897	131.269	15.9999	-20.6619	127.744	-14.7455	-19.2869	127.479	-10.8245	16.4375	157.938	11.24	-23.0307	147.349	-20.3844	-16.7501	145.51	-7.90121	22.8903	175.427	0.884273	-18.2101	166.768	-28.5265	-11.4693	157.738	-23.5163	22.1481	204.852	10.4972	0.0701167	210.772	6.31385	-16.323	214.102	11.9521	-38.4309	183.677	33.8851	41.4105	183.793	35.4311	72.1724	152.122	43.7179	54.5321	
39	0.325	118.452	9.02532	62.4689	117.45	-14.7417	25.871	128.211	-23.553	0.440499	148.858	-34.4755	-12.658	127.855	20.7751	-15.6665	125.133	-12.6129	-22.0755	124.597	-12.666	15.3903	151.644	11.9921	-24.5209	146.736	-21.0526	-14.4537	147.67	-6.66856	22.4503	176.743	0.550763	-18.7326	163.397	-27.5926	-10.4652	157.789	-21.0562	23.3365	201.117	13.5566	-1.82178	209.606	9.64466	-19.8312	215.093	14.302	-41.7459	185.307	34.567	40.4782	186.003	33.6477	75.3884	149.292	44.2009	55.0827	
40	0.333333	118.764	10.373	60.5025	116.488	-15.1545	29.1037	124.606	-25.0483	1.74825	148.305	-31.4998	-13.7336	125.89	21.5818	-16.7509	127.34	-11.8502	-20.8662	126.68	-10.1304	17.6162	154.632	13.6294	-23.1323	145.374	-18.0417	-18.201	146.183	-7.47284	21.8705	177.673	4.49228	-15.5899	163.354	-26.1755	-11.4301	160.229	-23.5701	21.8305	204.187	12.314	-1.03318	209.456	9.3906	-19.8677	215.052	14.7139	-39.8176	181.558	35.4745	40.2381	184.698	36.0796	74.8685	151.19	41.559	56.4589	
41	0.341667	119.981	10.5219	61.6712	113.512	-15.7729	30.8047	125.084	-22.2246	1.36985	148.891	-30.7668	-15.9205	122.779	22.454	-17.0506	124.402	-11.1688	-20.6235	123.772	-12.2904	14.1524	149.599	13.6758	-25.1511	146.599	-18.1573	-16.5362	147.881	-5.13023	21.8768	174.646	4.17409	-18.7123	161.987	-23.8259	-14.248	159.638	-19.9503	23.1582	202.177	14.3007	0.49599	204.323	12.2213	-23.4477	212.177	16.2564	-39.776	181.85	37.7882	42.2298	182.937	34.947	71.7804	146.248	43.1349	57.7246	
42	0.35	120.132	11.1006	60.8569	114.443	-14.7939	31.1199	122.592	-22.8205	-0.154544	147.657	-29.8008	-18.2116	124.529	20.7648	-19.238	124.889	-8.83969	-21.3811	124.728	-10.7679	13.8656	150.378	14.7818	-25.4889	145.962	-16.1426	-19.5751	145.272	-6.64204	20.8685	169.572	8.32749	-17.4967	160.604	-23.4189	-12.6022	154.966	-21.1098	19.1565	200.807	16.6344	-1.23861	204.317	15.2103	-19.3959	208.944	20.8782	-42.4514	179.524	39.081	41.8701	182.783	36.6624	71.4462	144.976	43.8901	54.6084	
43	0.358333	115.66	10.0266	61.3828	114.425	-13.6825	30.1577	121.341	-21.8858	2.12793	142.833	-28.1092	-15.3275	122.883	25.0944	-15.7742	119.127	-10.624	-19.5734	121.237	-10.7637	13.7348	146.434	19.7331	-21.27	138.954	-14.4743	-18.7921	141.051	-7.16429	19.1401	168.576	12.1166	-18.1116	157.584	-21.6855	-11.9717	158.155	-19.3383	19.6497	198.174	20.156	-4.15259	198.191	18.4741	-22.3765	204.287	23.1996	-43.4449	176.016	40.4126	41.8272	179.54	39.2977	71.8017	145.986	43.3887	58.4014	
44	0.366667	118.028	11.1026	58.8654	112.742	-12.8862	30.8068	119.826	-20.838	2.5582	141.946	-26.8234	-16.7297	116.719	24.0966	-19.2206	116.54	-6.81825	-22.0319	122.741	-7.67593	15.2496	141.544	19.9221	-23.4189	140.039	-13.0555	-18.1461	139.773	-3.52265	19.842	165.284	10.8151	-20.3888	155.123	-20.0676	-12.4602	155.639	-16.3875	19.226	190.162	22.8839	-4.30166	196.45	20.6974	-25.0627	196.563	27.2042	-45.8792	174.086	44.2385	37.5929	177.819	38.2003	74.7086	140.869	44.676	59.2605	
45	0.375	115.681	10.6013	60.8148	109.876	-12.7103	28.0621	115.686	-20.2648	-0.653153	141.443	-25.2542	-20.2153	116.139	27.9115	-14.798	113.034	-5.47679	-20.8112	117.041	-6.50394	16.5425	137.351	23.2393	-22.6287	133.721	-9.75588	-21.2324	138.063	-1.43996	19.2245	161.244	17.1484	-17.202	153.067	-17.1429	-13.6687	151.739	-15.1926	19.2867	190.609	25.7194	-6.10501	189.794	24.1866	-21.922	197.974	30.8507	-44.9506	168.58	43.5612	40.6093	178.048	40.7996	75.7236	135.272	46.194	57.789	
